<?xml version="1.0" standalone="no"?>
<!DOCTYPE svg PUBLIC "-//W3C//DTD SVG 20010904//EN"
 "http://www.w3.org/TR/2001/REC-SVG-20010904/DTD/svg10.dtd">
<svg version="1.0" xmlns="http://www.w3.org/2000/svg"
 width="512.000000pt" height="512.000000pt" viewBox="0 0 512.000000 512.000000"
 preserveAspectRatio="xMidYMid meet">

<g transform="translate(0.000000,512.000000) scale(0.100000,-0.100000)"
fill="#000000" stroke="none">
<path d="M2698 4714 c-15 -15 -21 -16 -45 -5 -23 10 -26 10 -15 0 6 -7 12 -15
12 -18 0 -4 -51 -6 -112 -6 -124 0 -177 -14 -256 -66 -49 -33 -62 -36 -62 -14
0 15 -20 22 -20 8 -1 -24 -18 -33 -43 -24 -30 12 -36 1 -11 -20 15 -12 14 -15
-6 -31 -22 -18 -22 -18 -1 -18 26 0 26 -2 -4 -64 -41 -86 -58 -171 -52 -266 3
-47 8 -94 13 -104 6 -17 4 -18 -20 -12 -27 7 -27 7 -10 -19 16 -25 16 -27 -6
-50 l-24 -25 32 6 c30 6 32 4 38 -26 7 -32 7 -32 19 -10 11 21 13 21 39 -25
16 -26 54 -73 86 -105 69 -69 70 -90 6 -122 -63 -32 -99 -63 -162 -138 -31
-38 -61 -75 -65 -82 -4 -7 -11 -9 -14 -6 -4 4 13 35 37 70 25 35 48 69 52 76
15 25 -8 11 -47 -30 l-40 -43 25 45 c36 64 42 84 24 77 -12 -5 -13 -1 -5 20 9
24 8 25 -7 12 -16 -13 -16 -12 -6 8 7 12 17 34 22 49 10 25 9 26 -6 13 -13
-11 -12 -4 5 30 12 23 20 45 18 48 -7 6 -43 -47 -52 -75 -4 -13 -10 -21 -13
-17 -4 3 -12 -11 -18 -32 l-12 -38 -1 40 c-2 55 -21 25 -21 -32 0 -24 -4 -43
-10 -43 -5 0 -10 9 -10 21 0 11 -4 17 -10 14 -5 -3 -10 -20 -10 -36 0 -18 -4
-28 -10 -24 -13 8 -12 -5 1 -85 6 -36 13 -83 15 -105 2 -22 6 -60 9 -85 3 -25
7 -57 9 -72 1 -16 6 -31 9 -35 4 -3 7 -11 7 -17 0 -5 -21 10 -47 34 -47 44
-47 44 -12 5 58 -66 61 -71 46 -83 -9 -8 -17 -8 -27 0 -12 8 -12 9 3 4 9 -3
17 -3 17 -1 0 8 -63 45 -75 45 -5 -1 3 -8 19 -16 19 -11 25 -19 17 -23 -7 -5
-3 -12 14 -21 33 -17 30 -33 -30 -205 -25 -71 -45 -140 -45 -153 0 -21 -3 -23
-32 -17 -29 5 -31 4 -13 -6 34 -21 36 -31 29 -144 -6 -104 -8 -191 -5 -262 1
-25 8 -36 30 -48 24 -12 32 -25 42 -70 7 -30 18 -55 24 -55 7 0 20 -11 29 -25
9 -14 33 -29 55 -35 21 -5 44 -17 51 -25 7 -8 25 -15 41 -15 25 0 28 -3 24
-27 -2 -16 -9 -73 -15 -128 -6 -55 -15 -136 -20 -180 -13 -108 -24 -249 -24
-309 -1 -46 1 -50 31 -60 18 -6 36 -15 42 -21 5 -5 11 -91 12 -190 3 -205 -3
-226 -70 -245 -66 -19 -81 -40 -84 -117 -1 -37 1 -77 5 -88 6 -17 -5 -27 -77
-70 l-85 -49 0 -72 0 -72 -43 -25 c-40 -24 -46 -25 -134 -16 l-93 10 -202
-119 c-112 -65 -204 -125 -206 -133 -1 -8 15 -35 38 -59 35 -38 40 -49 40 -92
l0 -48 1178 1 1177 1 95 27 95 26 3 69 c3 65 5 70 43 107 44 42 46 57 9 76
-12 6 -26 17 -31 24 -5 9 -74 18 -236 29 l-228 15 -5 70 -5 70 -60 8 c-33 4
-70 5 -82 2 -22 -5 -22 -3 -25 102 l-3 108 -47 3 c-60 4 -63 24 -7 46 l41 17
-8 107 c-4 59 -7 192 -7 296 l0 189 27 19 c45 33 49 51 26 119 -18 57 -19 72
-9 213 12 173 9 215 -32 454 -16 95 -29 188 -29 207 0 28 3 32 20 28 18 -5 20
0 20 36 0 33 3 41 16 39 11 -2 20 6 24 22 43 141 42 137 30 196 -9 45 -9 70 0
116 7 32 17 58 22 58 4 0 26 -11 48 -25 22 -14 44 -25 49 -25 14 0 111 112
111 127 0 8 -58 52 -129 98 -103 68 -138 97 -175 146 -40 53 -45 64 -33 78 7
9 34 41 60 72 65 78 63 96 -15 148 l-63 41 -34 -36 c-18 -20 -36 -32 -40 -27
-4 4 -29 36 -55 70 -52 66 -95 101 -166 131 l-45 19 53 7 c30 4 76 16 103 26
61 25 59 25 59 -2 l0 -23 18 23 c16 21 20 22 31 8 21 -24 32 -19 21 10 -9 22
-7 27 10 31 23 6 27 23 5 23 -21 0 -19 5 13 53 52 76 67 132 67 245 -1 79 2
101 12 98 16 -7 16 -1 1 25 -10 17 -10 23 0 26 19 7 14 23 -7 23 -14 0 -22 10
-26 32 -6 27 -9 29 -17 14 -9 -16 -13 -12 -35 25 -63 112 -153 201 -268 265
-46 26 -53 33 -38 39 15 7 13 9 -12 14 -19 4 -31 14 -35 29 -5 21 -6 22 -22 6z
m-100 -40 c42 -6 50 -9 41 -20 -9 -11 -6 -14 15 -14 19 0 27 -6 32 -27 7 -25
8 -25 21 -7 11 15 17 17 33 6 26 -16 31 -15 23 4 -5 13 2 12 38 -6 98 -50 192
-141 256 -249 20 -34 22 -43 10 -38 -20 8 -22 -4 -4 -22 10 -10 7 -16 -13 -31
l-24 -18 29 -4 c24 -2 31 -9 35 -33 5 -26 7 -27 13 -10 15 37 27 -6 27 -100 0
-97 -21 -167 -70 -236 l-24 -33 -6 24 c-6 24 -7 24 -17 5 -10 -16 -15 -18 -37
-7 -29 13 -31 10 -15 -19 9 -17 7 -21 -10 -26 -26 -7 -27 -20 -3 -25 37 -8
-94 -46 -172 -49 l-79 -4 -19 31 c-17 28 -17 34 -3 60 8 16 15 34 15 40 0 6
14 23 30 37 17 15 30 33 30 41 0 7 9 21 20 31 12 10 19 24 16 31 -3 7 14 28
37 46 55 42 56 45 46 82 -5 17 -9 43 -9 58 0 15 -17 71 -37 124 -37 95 -37 96
-68 90 -16 -3 -73 -10 -125 -15 -87 -8 -166 -30 -197 -54 -8 -5 -13 -32 -13
-62 0 -38 -4 -55 -15 -59 -8 -3 -15 -12 -15 -19 0 -8 -6 -20 -14 -26 -22 -19
-29 -77 -12 -114 8 -17 17 -52 20 -76 4 -24 13 -56 21 -71 15 -30 10 -63 -18
-116 -34 -62 -31 -62 -101 10 -60 61 -126 146 -126 161 0 3 9 3 21 0 20 -7 20
-6 4 19 -17 25 -17 28 0 46 18 19 17 20 -8 20 -20 0 -27 6 -32 31 -6 27 -8 29
-20 13 -11 -16 -13 -15 -18 12 -23 122 -9 242 41 340 29 56 31 58 40 34 l9
-25 8 24 c6 19 12 22 37 17 30 -6 30 -6 14 19 -15 23 -15 25 4 37 25 16 26 29
3 22 -35 -11 31 39 84 63 82 38 153 48 251 37z m-602 -1251 c-18 -33 -21 -26
-6 13 6 15 13 24 16 21 3 -3 -1 -18 -10 -34z"/>
<path d="M1880 3572 c0 -18 42 -143 47 -138 6 6 -27 129 -38 141 -6 5 -9 5 -9
-3z"/>
<path d="M1897 3405 c20 -41 39 -73 41 -71 4 5 -66 146 -73 146 -3 0 12 -34
32 -75z"/>
<path d="M1766 3391 c10 -11 72 -27 63 -17 -4 4 -21 11 -39 16 -20 6 -30 6
-24 1z"/>
<path d="M1785 3342 c6 -5 21 -13 35 -17 17 -5 22 -4 15 3 -5 5 -21 13 -35 17
-17 5 -22 4 -15 -3z"/>
<path d="M1905 3310 c21 -22 41 -40 44 -40 3 0 -13 18 -34 40 -21 22 -41 40
-44 40 -3 0 13 -18 34 -40z"/>
<path d="M1810 3256 c0 -2 7 -7 16 -10 8 -3 12 -2 9 4 -6 10 -25 14 -25 6z"/>
<path d="M1904 3145 c22 -17 40 -20 32 -6 -3 5 -16 11 -28 14 -22 6 -22 5 -4
-8z"/>
</g>
</svg>
